PathFileType	4	(X/Y/Z)	/Users/mathieubourgeois/Desktop/Analyse/Traitement/Sujet_06/Transformed_Static_Sujet_06_Tpose.trc
DataRate	CameraRate	NumFrames	NumMarkers	Units	OrigDataRate	OrigDataStartFrame	OrigNumFrames
120.000000	120.000000	4	36	mm	120.000000	0	252
Frame#	Time	RFHD			RANE			STRN			LANI			LKNE			T10			RHUM			RWRB			C7			LFWT			LTOE			RTOE			LWRA			LBWT			RBWT			RFWT			LKNI			RKNI			RKNE			LANE			RANI			LHEE			RHEE			LHUM			LRAD			RRAD			RWRA			LWRB			LFHD			LBHD			RBHD			RSHO			LSHO			CLAV			LCAR			RCAR			
		X1	Y1	Z1	X2	Y2	Z2	X3	Y3	Z3	X4	Y4	Z4	X5	Y5	Z5	X6	Y6	Z6	X7	Y7	Z7	X8	Y8	Z8	X9	Y9	Z9	X10	Y10	Z10	X11	Y11	Z11	X12	Y12	Z12	X13	Y13	Z13	X14	Y14	Z14	X15	Y15	Z15	X16	Y16	Z16	X17	Y17	Z17	X18	Y18	Z18	X19	Y19	Z19	X20	Y20	Z20	X21	Y21	Z21	X22	Y22	Z22	X23	Y23	Z23	X24	Y24	Z24	X25	Y25	Z25	X26	Y26	Z26	X27	Y27	Z27	X28	Y28	Z28	X29	Y29	Z29	X30	Y30	Z30	X31	Y31	Z31	X32	Y32	Z32	X33	Y33	Z33	X34	Y34	Z34	X35	Y35	Z35	X36	Y36	Z36	

1	0	-889.9114990234375	1638.78125	310.6435852050779	-958.5740356445312	75.83262634277345	216.9490966796874	-816.296630859375	1234.5244140625	352.9764709472655	-763.4020385742188	78.13346099853517	224.712417602539	-675.9534301757812	480.6475219726562	235.6109161376952	-821.9163818359375	1211.012817382812	151.7199554443357	-1266.900512695312	1407.23388671875	190.9613342285154	-1492.190307617188	1477.577392578125	199.1739959716794	-822.2235717773438	1453.55224609375	193.4674377441404	-704.580078125	984.6935424804688	326.767608642578	-696.7527465820312	36.8773994445801	392.4164428710936	-917.784912109375	38.02996444702151	399.5058593749999	-125.3300476074219	1348.232788085938	116.5662918090819	-765.0020141601562	1011.600280761719	172.1222686767577	-871.6183471679688	1012.260986328125	180.017608642578	-918.4097290039062	988.362548828125	336.0350646972655	-770.4794921875	435.841552734375	231.403350830078	-868.5575561523438	441.0458984375	217.8995819091795	-964.05126953125	492.6222229003906	229.7076568603514	-683.31689453125	69.06044769287111	202.8556976318359	-878.3094482421875	83.78221130371095	227.2772979736327	-723.967041015625	51.41790390014649	154.0677185058593	-923.06591796875	54.00841522216798	162.6651306152343	-374.1006774902344	1364.390869140625	148.2853240966795	-366.3238220214844	1319.686645507812	194.1702880859374	-1265.730712890625	1368.978637695312	246.5008850097654	-1504.897094726562	1421.94189453125	179.4368896484372	-130.3063507080078	1409.4189453125	113.4968032836913	-744.2276000976562	1643.419067382812	308.4366455078123	-746.5366821289062	1577.209594726562	172.9424438476561	-873.5149536132812	1578.664184570312	157.7901153564451	-960.2767944335938	1447.495971679688	227.8210144042967	-670.6914672851562	1435.681640625	215.5851898193358	-814.8253784179688	1386.77490234375	313.1188354492186	-43.41296768188478	1390.376342773438	93.70755767822257	-1598.888305664062	1461.587646484375	157.7184448242185	
2	0.008333333333333333	-889.8511352539062	1638.780151367188	310.7728881835935	-958.5721435546875	75.83705902099611	216.9417419433593	-816.3062744140625	1234.495483398438	353.0485534667967	-763.3883056640625	78.13698577880861	224.6832733154296	-675.9343872070312	480.6501770019531	235.6650085449218	-821.9052124023438	1211.017456054688	151.7597656249998	-1266.879638671875	1407.250854492188	191.074768066406	-1492.165649414062	1477.60986328125	199.3067169189451	-822.1837768554688	1453.549194335938	193.5755004882811	-704.5695190429688	984.7020874023438	326.8136901855467	-696.7608642578125	36.87836837768557	392.4083251953124	-917.7770385742188	38.02810668945315	399.5024108886718	-125.3279495239258	1348.159912109375	116.6390991210937	-764.9913330078125	1011.582153320312	172.1784667968749	-871.6250610351562	1012.236633300781	180.0680999755858	-918.4115600585938	988.3831787109375	336.0985412597655	-770.45263671875	435.8551635742188	231.3979949951171	-868.5597534179688	441.0650329589844	217.9570159912108	-964.0510864257812	492.6120910644531	229.7603912353514	-683.3113403320312	69.06027221679689	202.8369598388671	-878.3049926757812	83.77305603027345	227.2629547119139	-723.9532470703125	51.42239379882813	154.054214477539	-923.0641479492188	54.01083755493165	162.6668243408202	-374.092041015625	1364.336303710938	148.3540039062499	-366.3108215332031	1319.622802734375	194.2302398681639	-1265.710571289062	1369.01318359375	246.594299316406	-1504.868530273438	1421.97314453125	179.5915222167966	-130.2885284423828	1409.353637695312	113.6072540283202	-744.1641845703125	1643.391967773438	308.5751342773435	-746.4772338867188	1577.194213867188	173.0753326416014	-873.448974609375	1578.676147460938	157.8942260742186	-960.2493286132812	1447.5	227.8670349121092	-670.6668090820312	1435.64892578125	215.6863708496092	-814.8035888671875	1386.7548828125	313.2167663574217	-43.37478256225587	1390.302734375	93.80427551269523	-1598.869262695312	1461.6064453125	157.848709106445	
3	0.01666666666666667	-889.7979125976562	1638.77734375	310.9001770019529	-958.5692749023438	75.83621215820314	216.9293060302733	-816.301513671875	1234.467407226562	353.1101074218748	-763.393310546875	78.13274383544923	224.6404724121093	-675.9090576171875	480.6443481445312	235.7245635986327	-821.9161376953125	1211.03466796875	151.780075073242	-1266.848510742188	1407.264526367188	191.1718597412107	-1492.136596679688	1477.646728515625	199.4212799072263	-822.1220703125	1453.546875	193.669967651367	-704.5712890625	984.7175903320312	326.8610839843748	-696.7575073242188	36.88405609130862	392.4110717773436	-917.7884521484375	38.0273132324219	399.503448486328	-125.3105926513672	1348.077880859375	116.7398986816405	-764.9885864257812	1011.569152832031	172.2252502441405	-871.6282958984375	1012.204956054688	180.1185302734373	-918.3963623046875	988.3988647460938	336.1502990722655	-770.43115234375	435.8659362792969	231.4139099121093	-868.5650024414062	441.0624694824219	218.0047760009764	-964.0509033203125	492.6182556152344	229.803741455078	-683.3281860351562	69.06397247314455	202.8211822509765	-878.301025390625	83.77139282226564	227.2377166748046	-723.9487915039062	51.4187240600586	154.0599822998046	-923.0636596679688	54.01553344726563	162.6625213623046	-374.0870056152344	1364.258666992188	148.422637939453	-366.3038330078125	1319.550903320312	194.2931823730467	-1265.6787109375	1369.030517578125	246.6937255859373	-1504.854736328125	1421.995849609375	179.7285308837888	-130.2592010498047	1409.291137695312	113.702667236328	-744.1124877929688	1643.370483398438	308.7129211425779	-746.3930053710938	1577.1884765625	173.2121124267576	-873.3732299804688	1578.689697265625	158.0138092041014	-960.2061767578125	1447.50048828125	227.9097442626951	-670.6414184570312	1435.61962890625	215.7719879150389	-814.7854614257812	1386.738403320312	313.2865295410155	-43.33937835693361	1390.221923828125	93.92374420166007	-1598.844116210938	1461.617553710938	157.9925994873044	
4	0.025	-889.95751953125	1638.885864257812	310.3925781249998	-958.7050170898438	75.49642181396486	216.6770629882811	-816.2994384765625	1234.478393554688	353.1785888671873	-763.7714233398438	77.4673309326172	224.1619567871093	-675.9139404296875	480.7456665039062	235.7859649658202	-821.9051513671875	1211.044799804688	151.818405151367	-1266.828247070312	1407.294921875	191.2538299560545	-1492.119873046875	1478.18505859375	199.5979461669919	-822.091552734375	1452.94970703125	193.8967895507811	-704.5798950195312	984.742919921875	326.9354553222655	-696.7673950195312	36.89171600341799	392.411895751953	-917.779296875	38.03652954101565	399.5092773437499	-125.2815551757813	1347.999145507812	116.8587951660155	-765.0491333007812	1011.007507324219	172.3331909179686	-871.6986083984375	1012.283447265625	179.2652282714842	-918.4833984375	987.9177856445312	335.6929321289061	-770.4097290039062	435.8679504394531	231.4111938476561	-868.5579223632812	441.0763549804688	218.038360595703	-964.0892944335938	492.4270935058594	229.7838745117186	-683.1828002929688	68.77266693115236	203.0221252441405	-878.3074951171875	83.80258941650392	227.2467498779296	-723.9531860351562	51.42816162109376	154.0516967773437	-923.0661010742188	54.03468322753907	162.6635589599608	-374.0592956542969	1364.176513671875	148.518356323242	-366.3687744140625	1319.71337890625	194.4089965820311	-1265.671142578125	1368.769287109375	245.8571929931638	-1504.829467773438	1422.0126953125	179.8546905517576	-130.23291015625	1409.203247070312	113.7963485717772	-744.0588989257812	1643.309814453125	308.8771972656248	-744.6851806640625	1577.516723632812	172.9192657470701	-873.251953125	1578.581787109375	157.7133026123045	-960.1660766601562	1447.515747070312	227.9830932617186	-670.6114501953125	1435.595947265625	215.8412322998045	-814.7717895507812	1386.735595703125	313.3624267578123	-43.29518127441408	1390.147583007812	94.04547119140616	-1598.825927734375	1461.649169921875	158.1283721923825	
